<svg version="1" xmlns="http://www.w3.org/2000/svg"
 width="590pt" height="431pt" viewBox="0 0 590 431"
 preserveAspectRatio="xMidYMid meet">
<g transform="translate(0,431) scale(0.1,-0.1)"
fill="#000000" stroke="none">
<path d="M1510 2778 c-237 -274 -349 -448 -413 -640 -76 -227 -55 -389 68
-517 160 -168 432 -180 820 -39 61 23 229 91 375 153 146 62 366 155 490 208
457 193 829 351 1385 587 314 134 629 267 700 297 125 53 163 72 120 61 -11
-3 -265 -71 -565 -151 -1417 -379 -2333 -621 -2415 -638 -110 -23 -259 -25
-340 -4 -102 27 -179 90 -224 185 -24 50 -26 66 -26 175 0 109 3 129 33 215
18 52 48 124 67 159 19 36 34 66 32 67 -2 2 -50 -51 -107 -118z"/>
</g>
</svg>
